<svg width="50" height="50" viewBox="0 0 50 50" fill="none" xmlns="http://www.w3.org/2000/svg">
<g clip-path="url(#clip0_38_122)">
<path d="M42.5 0H7.5C3.35786 0 0 3.35786 0 7.5V42.5C0 46.6421 3.35786 50 7.5 50H42.5C46.6421 50 50 46.6421 50 42.5V7.5C50 3.35786 46.6421 0 42.5 0Z" fill="black"/>
<path d="M19.4336 35.0586V19.4336C19.4336 18.8477 19.7591 18.4896 20.4101 18.3594L33.8867 15.625C34.6029 15.4948 34.9935 15.8203 35.0586 16.6016V28.5156C35.0586 29.4922 33.5937 30.1432 30.6641 30.4687C25.0976 31.3477 25.9766 40.7227 33.5937 38.1836C36.5234 37.1094 37.0117 34.2773 37.0117 31.4453V8.59375C37.0117 8.59375 37.0117 6.64062 35.3516 7.1289L18.75 10.5469C18.75 10.5469 17.4805 10.7422 17.4805 12.3047V32.1289C17.4805 33.1055 16.0156 33.7565 13.0859 34.082C7.51952 34.9609 8.39843 44.3359 16.0156 41.7969C18.9453 40.7227 19.4336 37.8906 19.4336 35.0586Z" fill="white"/>
</g>
<defs>
<clipPath id="clip0_38_122">
<rect width="50" height="50" fill="white"/>
</clipPath>
</defs>
</svg>
