<svg width="50" height="109" viewBox="0 0 50 109" fill="none" xmlns="http://www.w3.org/2000/svg">
<path d="M4.16666 73.9656H11.75V78.7889H4.16666V73.9656ZM4.16666 67.6936H11.75V72.5168H4.16666V67.6936ZM4.16666 61.4261H11.75V66.2493H4.16666V61.4261ZM4.16666 55.1586H11.75V59.9818H4.16666V55.1586ZM4.16666 48.8865H11.75V53.7098H4.16666V48.8865ZM12.6708 73.9656H20.2562V78.7889H12.6708V73.9656ZM12.6708 67.6936H20.2562V72.5168H12.6708V67.6936ZM12.6708 61.4261H20.2562V66.2493H12.6708V61.4261ZM21.175 73.9656H28.7604V78.7889H21.175V73.9656ZM21.175 67.6936H28.7604V72.5168H21.175V67.6936ZM21.175 61.4261H28.7604V66.2493H21.175V61.4261ZM21.175 55.1586H28.7604V59.9818H21.175V55.1586ZM21.175 48.8865H28.7604V53.7098H21.175V48.8865ZM21.175 42.619H28.7604V47.4423H21.175V42.619ZM21.175 36.347H28.7604V41.1702H21.175V36.347ZM29.6792 73.9656H37.2646V78.7889H29.6792V73.9656ZM29.6792 67.6936H37.2646V72.5168H29.6792V67.6936ZM29.6792 61.4261H37.2646V66.2493H29.6792V61.4261ZM29.6792 55.1586H37.2646V59.9818H29.6792V55.1586ZM29.6792 48.8865H37.2646V53.7098H29.6792V48.8865ZM38.1833 73.9656H45.7687V78.7889H38.1833V73.9656ZM38.1833 67.6936H45.7687V72.5168H38.1833V67.6936ZM38.1833 61.4261H45.7687V66.2493H38.1833V61.4261ZM38.1833 55.1586H45.7687V59.9818H38.1833V55.1586ZM38.1833 48.8865H45.7687V53.7098H38.1833V48.8865ZM38.1833 42.619H45.7687V47.4423H38.1833V42.619ZM38.1833 36.347H45.7687V41.1702H38.1833V36.347ZM38.1833 30.075H45.7687V34.8982H38.1833V30.075Z" fill="black"/>
</svg>
