<svg width="890" height="940" viewBox="0 0 890 940" fill="none" xmlns="http://www.w3.org/2000/svg">
<path d="M194.204 240.005L256.774 188.179L428.011 394.643L398.497 419.09L249.276 239.171L238.061 248.461L328.548 477.028L273.651 522.498L63.3362 393.183L51.5305 402.961L200.751 582.88L171.237 607.326L0 400.862L62.5703 349.036L272.885 478.351L284.691 468.572L194.204 240.005Z" fill="black"/>
<path d="M483.965 0L655.202 206.464L469.262 360.476L298.025 154.012L327.539 129.565L474.314 306.535L601.225 201.416L454.451 24.4463L483.965 0Z" fill="black"/>
<path d="M502.315 625.627L372.453 733.19L420.154 790.705L552.969 680.697L654.487 803.101L489.207 940L467.191 913.455L602.957 801.002L545.47 731.689L412.656 841.697L320.922 731.091L480.299 599.081L502.315 625.627Z" fill="black"/>
<path d="M561.697 576.442C549.301 586.709 530.949 584.993 520.674 572.605C510.889 560.807 512.607 542.467 525.003 532.199C536.809 522.421 555.161 524.137 564.946 535.935C575.22 548.323 573.503 566.663 561.697 576.442ZM590.836 582.16L725.379 744.382L695.865 768.828L561.322 606.606L590.836 582.16Z" fill="black"/>
<path d="M785.779 390.837L647.062 505.735L774.267 659.108L912.984 544.21L935 570.756L766.769 710.1L595.532 503.635L763.763 364.291L785.779 390.837Z" fill="black"/>
</svg>
