<svg width="50" height="50" viewBox="0 0 50 50" fill="none" xmlns="http://www.w3.org/2000/svg">
<g clip-path="url(#clip0_40_133)">
<path fill-rule="evenodd" clip-rule="evenodd" d="M39.7875 22.1625C31.7292 17.3771 18.4375 16.9375 10.7437 19.2729C9.50833 19.6479 8.20208 18.95 7.82917 17.7146C7.45417 16.4792 8.15 15.1729 9.3875 14.7979C18.2188 12.1167 32.8979 12.6354 42.175 18.1417C43.2854 18.8021 43.65 20.2354 42.9917 21.3458C42.3333 22.4562 40.8979 22.8229 39.7875 22.1625ZM39.525 29.2521C38.9583 30.1687 37.7604 30.4562 36.8437 29.8937C30.125 25.7646 19.8813 24.5667 11.9312 26.9792C10.9021 27.2917 9.8125 26.7104 9.5 25.6812C9.18958 24.65 9.77083 23.5646 10.8 23.25C19.8792 20.4958 31.1667 21.8292 38.8833 26.5729C39.8 27.1354 40.0875 28.3375 39.525 29.2521ZM36.4646 36.0583C36.0167 36.7958 35.0562 37.0271 34.3229 36.5771C28.4521 32.9896 21.0625 32.1792 12.3604 34.1667C11.5229 34.3583 10.6875 33.8333 10.4958 32.9958C10.3042 32.1562 10.8271 31.3208 11.6667 31.1292C21.1896 28.9521 29.3583 29.8896 35.9479 33.9167C36.6833 34.3646 36.9146 35.325 36.4646 36.0583ZM25 0C11.1937 0 0 11.1937 0 25C0 38.8083 11.1937 50 25 50C38.8083 50 50 38.8083 50 25C50 11.1937 38.8083 0 25 0Z" fill="black"/>
</g>
<defs>
<clipPath id="clip0_40_133">
<rect width="50" height="50" fill="white"/>
</clipPath>
</defs>
</svg>
