<svg width="50" height="50" viewBox="0 0 50 50" fill="none" xmlns="http://www.w3.org/2000/svg">
<g clip-path="url(#clip0_40_136)">
<path fill-rule="evenodd" clip-rule="evenodd" d="M25 0C38.8071 0 50 11.1929 50 25C50 38.8071 38.8071 50 25 50C11.1929 50 0 38.8071 0 25C0 11.1929 11.1929 0 25 0ZM29.9203 21.4315L25.0012 26.3518L29.921 31.2728L25.0009 36.1939L20.0795 31.2728L25.0007 26.352L20.0795 21.4311L25.0009 16.5119L29.9208 21.4308L34.8416 16.5113L39.7617 21.4314L34.8416 26.3525L29.9203 21.4315ZM20.0798 21.4314L15.1587 26.3525L10.2383 21.4314L15.1587 16.5113L20.0798 21.4314Z" fill="black"/>
</g>
<defs>
<clipPath id="clip0_40_136">
<rect width="50" height="50" fill="white"/>
</clipPath>
</defs>
</svg>
