<svg width="56" height="56" viewBox="0 0 56 56" fill="none" xmlns="http://www.w3.org/2000/svg">
<path d="M28 3.41028C14.4325 3.41028 3.41031 14.4325 3.41031 28C3.41031 41.5675 14.4325 52.5897 28 52.5897C41.5675 52.5897 52.5897 41.5675 52.5897 28C52.5897 14.4325 41.5675 3.41028 28 3.41028ZM28 5.54965C40.412 5.54965 50.4503 15.588 50.4503 28C50.4503 40.412 40.412 50.4503 28 50.4503C15.588 50.4503 5.54968 40.412 5.54968 28C5.54968 15.588 15.588 5.54965 28 5.54965ZM28 12.32C19.3532 12.32 12.32 19.3531 12.32 28C12.32 36.6468 19.3532 43.68 28 43.68C36.6468 43.68 43.68 36.6468 43.68 28C43.68 19.3531 36.6468 12.32 28 12.32ZM28 14.56C35.4364 14.56 41.44 20.5636 41.44 28C41.44 35.4363 35.4364 41.44 28 41.44C20.5636 41.44 14.56 35.4363 14.56 28C14.56 20.5636 20.5636 14.56 28 14.56ZM23.5572 19.6C23.407 19.595 23.2574 19.6203 23.1172 19.6743C22.977 19.7284 22.8491 19.8101 22.7411 19.9146C22.6331 20.0191 22.5473 20.1443 22.4887 20.2826C22.4301 20.421 22.3999 20.5697 22.4 20.72V35.28C22.4001 35.4774 22.4523 35.6713 22.5514 35.842C22.6506 36.0128 22.7931 36.1543 22.9645 36.2522C23.1359 36.3502 23.3302 36.401 23.5276 36.3997C23.7251 36.3984 23.9186 36.3449 24.0887 36.2447L36.4087 28.9647C36.5765 28.8656 36.7156 28.7246 36.8122 28.5554C36.9088 28.3862 36.9596 28.1948 36.9596 28C36.9596 27.8051 36.9088 27.6137 36.8122 27.4445C36.7156 27.2753 36.5765 27.1343 36.4087 27.0353L24.0887 19.7553C23.9274 19.6598 23.7446 19.6064 23.5572 19.6ZM24.64 22.6822L33.6394 28L24.64 33.3178V22.6822Z" fill="black"/>
</svg>
